<svg xmlns="http://www.w3.org/2000/svg" xmlns:xlink="http://www.w3.org/1999/xlink" version="1.1" x="0px" y="0px" viewBox="0 0 100 100" fill="#6DD280" style="enable-background:new 0 0 100 100;" xml:space="preserve"><path d="M82.4997406,39.2082367c0-16.2475586-15.1865234-30.5-32.5-30.5s-32.5,14.2524405-32.5,30.5  c0,15.2663574,15.5766602,33.7861328,29.5,36.223938v12.8595581c0,1.6572266,1.3427734,3,3,3s3-1.3427734,3-3V75.4321747  C66.9230804,72.9943695,82.4997406,54.4745941,82.4997406,39.2082367z M52.9997406,69.3083954V64.5056L67.092514,50.4128265  c1.171875-1.1713867,1.171875-3.0708008,0-4.2421875c-1.171875-1.171875-3.0703125-1.171875-4.2421875,0l-9.8505859,9.8505859  V41.2995453c0-1.6567383-1.3427734-3-3-3s-3,1.3432617-3,3v3.2731934L41.2556,38.8283539  c-1.171875-1.171875-3.0703125-1.1713867-4.2421875-0.0004883c-1.171875,1.171875-1.171875,3.0712891,0,4.2426758  l9.9863281,9.9867554v16.2510986c-10.267334-2.5811768-23.5000019-17.2545166-23.5000019-30.1001587  c0-13.0512695,12.3828144-24.5,26.5000019-24.5s26.5,11.4487295,26.5,24.5  C76.4997406,52.0538788,63.2670746,66.7272186,52.9997406,69.3083954z"/></svg>
